<?xml version="1.0" standalone="no"?>
<!DOCTYPE svg PUBLIC "-//W3C//DTD SVG 20010904//EN"
 "http://www.w3.org/TR/2001/REC-SVG-20010904/DTD/svg10.dtd">
<svg version="1.0" xmlns="http://www.w3.org/2000/svg"
 width="920.000000pt" height="691.000000pt" viewBox="0 0 920.000000 691.000000"
 preserveAspectRatio="xMidYMid meet">

<g transform="translate(0.000000,691.000000) scale(0.100000,-0.100000)"
fill="#000000" stroke="none">
<path d="M8502 6895 c-35 -8 -96 -28 -135 -46 -71 -32 -97 -57 -2794 -2753
l-2723 -2721 -987 986 -988 987 -85 41 c-215 104 -454 64 -626 -103 -144 -142
-199 -371 -134 -560 46 -135 18 -105 1209 -1301 625 -627 1155 -1166 1178
-1197 78 -106 202 -184 339 -213 132 -28 252 -12 383 51 75 37 109 70 2994
2953 2105 2104 2930 2934 2961 2981 126 192 138 389 36 596 -66 135 -197 243
-350 288 -79 23 -203 29 -278 11z"/>
</g>
</svg>
