<?xml version="1.0" standalone="no"?>
<!DOCTYPE svg PUBLIC "-//W3C//DTD SVG 20010904//EN"
 "http://www.w3.org/TR/2001/REC-SVG-20010904/DTD/svg10.dtd">
<svg version="1.0" xmlns="http://www.w3.org/2000/svg"
 width="300.000000pt" height="221.000000pt" viewBox="0 0 300.000000 221.000000"
 preserveAspectRatio="xMidYMid meet">

<g transform="translate(0.000000,221.000000) scale(0.100000,-0.100000)"
fill="#000000" stroke="none">
<path d="M1025 2124 c-224 -41 -453 -134 -539 -220 -100 -100 -241 -466 -316
-820 -32 -154 -55 -323 -66 -481 -6 -98 -5 -105 19 -146 59 -101 199 -209 357
-276 127 -54 365 -109 416 -97 18 5 149 164 141 172 -1 1 -44 16 -95 33 -175
58 -366 167 -378 216 -8 31 11 63 42 71 18 5 38 -3 78 -29 154 -102 350 -174
571 -208 103 -16 387 -16 490 0 211 33 391 95 536 187 48 30 95 54 106 54 29
0 55 -34 51 -66 -6 -55 -186 -162 -380 -225 l-98 -32 24 -31 c12 -17 40 -55
60 -84 21 -28 48 -55 60 -58 27 -6 134 10 240 37 234 60 442 189 531 329 l29
45 -12 160 c-13 185 -38 343 -87 541 -63 261 -166 532 -248 656 -80 119 -311
226 -595 273 -116 20 -140 13 -160 -43 l-10 -29 82 -18 c166 -35 367 -113 443
-171 38 -29 44 -71 15 -97 -27 -24 -46 -21 -115 17 -217 122 -572 192 -835
167 -229 -23 -396 -67 -566 -152 -109 -54 -125 -58 -150 -30 -28 31 -17 71 29
103 67 46 249 118 385 151 72 18 130 35 130 38 0 3 -10 21 -23 40 -27 41 -48
44 -162 23z m160 -913 c116 -52 168 -218 106 -339 -22 -43 -80 -98 -118 -113
-112 -42 -245 43 -273 176 -39 188 127 348 285 276z m790 0 c151 -68 178 -297
49 -410 -46 -41 -73 -51 -132 -51 -93 0 -180 80 -202 185 -39 188 127 348 285
276z"/>
</g>
</svg>
