<?xml version="1.0" standalone="no"?>
<!DOCTYPE svg PUBLIC "-//W3C//DTD SVG 20010904//EN"
 "http://www.w3.org/TR/2001/REC-SVG-20010904/DTD/svg10.dtd">
<svg version="1.0" xmlns="http://www.w3.org/2000/svg"
 width="225.000000pt" height="225.000000pt" viewBox="0 0 225.000000 225.000000"
 preserveAspectRatio="xMidYMid meet">

<g transform="translate(0.000000,225.000000) scale(0.100000,-0.100000)"
fill="#000000" stroke="none">
<path d="M1001 2240 c-450 -63 -778 -487 -722 -936 14 -121 46 -215 122 -369
130 -259 401 -617 659 -870 l61 -60 102 105 c367 376 645 794 718 1080 58 226
18 477 -108 668 -89 134 -231 257 -367 317 -130 58 -323 85 -465 65z m254
-325 c178 -47 326 -192 379 -374 10 -33 16 -91 16 -145 -1 -295 -233 -526
-529 -526 -148 0 -272 51 -376 155 -167 167 -204 419 -92 629 62 119 197 225
328 260 72 19 201 20 274 1z"/>
</g>
</svg>
